<?xml version="1.0" encoding="UTF-8" standalone="no"?>
<svg
   viewBox="0 0 512 512"
   version="1.1"
   id="svg1"
   sodipodi:docname="power.svg"
   width="512"
   height="512"
   inkscape:version="1.3.2 (091e20e, 2023-11-25, custom)"
   xmlns:inkscape="http://www.inkscape.org/namespaces/inkscape"
   xmlns:sodipodi="http://sodipodi.sourceforge.net/DTD/sodipodi-0.dtd"
   xmlns="http://www.w3.org/2000/svg"
   xmlns:svg="http://www.w3.org/2000/svg">
  <defs
     id="defs1" />
  <sodipodi:namedview
     id="namedview1"
     pagecolor="#ffffff"
     bordercolor="#000000"
     borderopacity="0.25"
     inkscape:showpageshadow="2"
     inkscape:pageopacity="0.0"
     inkscape:pagecheckerboard="0"
     inkscape:deskcolor="#d1d1d1"
     showgrid="false"
     inkscape:zoom="1.144445"
     inkscape:cx="-70.339774"
     inkscape:cy="405.8736"
     inkscape:window-width="2560"
     inkscape:window-height="1520"
     inkscape:window-x="-11"
     inkscape:window-y="-11"
     inkscape:window-maximized="1"
     inkscape:current-layer="svg1" />
  <ellipse
     style="fill:#a02c5a;stroke:#000000;stroke-width:50.4757;stroke-linecap:round;stroke-linejoin:round;stroke-opacity:1;paint-order:markers stroke fill"
     id="path3"
     cx="256"
     cy="256"
     rx="230.76215"
     ry="230.76213" />
  <path
     d="m 355.75,123.4375 -31.71875,31.71875 C 361.875,178.125 387.25,219.46875 387.25,266.9375 A 131.25,131.25 0 0 1 256,398.1875 131.25,131.25 0 0 1 124.75,266.9375 c 0,-47.46875 25.375,-88.8125 63,-112 l -31.5,-31.5 c -45.5,31.5 -75.25,84 -75.25,143.5 a 175,175 0 0 0 175,175 175,175 0 0 0 175,-175 c 0,-59.5 -29.75,-112 -75.25,-143.5 m -77.875,-53.375 h -43.75 v 218.75 h 43.75"
     id="path1"
     style="fill:#ffffff;stroke-width:21.875" />
  <path
     d="M 357.02185,126.02545 325.3031,157.7442 c 37.84375,22.96875 63.21875,64.3125 63.21875,111.78125 a 131.25,131.25 0 0 1 -131.25,131.25 131.25,131.25 0 0 1 -131.25,-131.25 c 0,-47.46875 25.375,-88.8125 63,-112 l -31.5,-31.5 c -45.5,31.5 -75.249998,84 -75.249998,143.5 a 175,175 0 0 0 174.999998,175 175,175 0 0 0 175,-175 c 0,-59.5 -29.75,-112 -75.25,-143.5 m -77.875,-53.374997 h -43.75 V 291.40045 h 43.75"
     id="path1-3"
     style="fill:#ffffff;stroke-width:21.875" />
  <ellipse
     style="fill:none;stroke-width:40;stroke-linecap:round;stroke-linejoin:round;paint-order:markers stroke fill"
     id="path2"
     cx="-765.43652"
     cy="287.47559"
     rx="232.42708"
     ry="290.97073" />
</svg>
