<?xml version="1.0" standalone="no"?>
<!DOCTYPE svg PUBLIC "-//W3C//DTD SVG 20010904//EN"
 "http://www.w3.org/TR/2001/REC-SVG-20010904/DTD/svg10.dtd">
<svg version="1.0" xmlns="http://www.w3.org/2000/svg"
 width="700.000000pt" height="700.000000pt" viewBox="0 0 700.000000 700.000000"
 preserveAspectRatio="xMidYMid meet">
<metadata>
Created by potrace 1.14, written by Peter Selinger 2001-2017
</metadata>
<g transform="translate(0.000000,700.000000) scale(0.100000,-0.100000)"
fill="#000000" stroke="none">
<path d="M3280 6994 c-19 -2 -84 -9 -145 -14 -635 -62 -1266 -317 -1795 -726
-148 -114 -480 -446 -594 -594 -411 -530 -654 -1132 -728 -1795 -17 -155 -17
-575 0 -730 74 -670 335 -1303 749 -1820 115 -144 339 -373 483 -494 534 -449
1166 -718 1875 -801 50 -6 176 -13 280 -17 820 -26 1632 246 2280 763 142 114
371 338 494 484 450 536 717 1163 803 1885 17 144 17 586 0 730 -100 847 -446
1556 -1043 2140 -558 545 -1242 873 -2029 971 -117 15 -552 27 -630 18z m520
-969 c0 -8 5 -15 10 -15 7 0 9 -501 8 -1497 l-3 -1498 -297 -3 c-293 -2 -298
-2 -298 18 0 11 -4 20 -10 20 -7 0 -10 505 -10 1495 l0 1495 300 0 c260 0 300
-2 300 -15z m-1440 -930 c118 -118 211 -215 206 -215 -5 0 -2 -7 5 -16 12 -15
10 -19 -11 -33 -291 -191 -551 -492 -679 -788 -104 -240 -140 -404 -148 -673
-6 -215 7 -340 52 -515 160 -616 686 -1112 1330 -1254 279 -61 606 -52 875 26
299 86 553 236 775 458 223 223 372 475 459 778 50 174 60 256 60 492 0 200
-2 231 -27 346 -97 457 -352 833 -745 1099 -34 23 -60 46 -57 50 3 5 -3 13
-12 19 -16 9 11 40 197 226 118 118 220 215 225 215 23 0 235 -178 342 -287
350 -355 589 -824 674 -1323 31 -180 34 -563 6 -735 -86 -534 -331 -1007 -711
-1372 -366 -353 -820 -575 -1321 -649 -146 -22 -517 -25 -640 -6 -249 39 -444
94 -644 179 -322 137 -630 362 -858 627 -300 349 -492 752 -574 1206 -31 166
-38 517 -15 698 33 255 104 496 215 727 172 359 401 639 722 885 35 27 69 49
74 50 6 0 107 -97 225 -215z"/>
</g>
</svg>
